<!-- icon666.com - MILLIONS vector ICONS FREE --><svg viewBox="0 0 128 128" xmlns="http://www.w3.org/2000/svg"><g><g><path d="m19 7h90v80.501h-90z" fill="#fb931f"></path><path d="m19 7h90v10.198h-90z" fill="#fb7717"></path><path d="m19 47.251h90v10.198h-90z" fill="#fb7717"></path><path d="m19 121h9.25l4.988-20.011h-14.238z" fill="#0c4f87"></path><path d="m99.75 121h9.25v-20.011h-14.238z" fill="#0c4f87"></path><g fill="#ffd92e"><path d="m36.38 27.397 5.12-5.12 5.12 5.12v-20.397h-10.24z"></path><path d="m81.38 27.397 5.12-5.12 5.12 5.12v-20.397h-10.24z"></path><path d="m36.38 67.647 5.12-5.12 5.12 5.12v-20.396h-10.24z"></path><path d="m81.38 67.647 5.12-5.12 5.12 5.12v-20.396h-10.24z"></path></g><path d="m7 100.989h114v-6.744-6.744h-114z" fill="#1369af"></path></g><g><path d="m58.449 99.239h-4.5a1.75 1.75 0 1 0 0 3.5h4.5a1.75 1.75 0 0 0 0-3.5z"></path><path d="m121 85.751h-10.25v-51.4a1.75 1.75 0 0 0 -3.5 0v11.149h-41.5v-26.552h13.88v8.452a1.749 1.749 0 0 0 2.987 1.237l3.883-3.885 3.883 3.882a1.749 1.749 0 0 0 2.987-1.234v-8.452h13.88v6.042a1.75 1.75 0 1 0 3.5 0v-17.99a1.75 1.75 0 0 0 -1.75-1.75h-90a1.751 1.751 0 0 0 -1.75 1.75v78.751h-10.25a1.751 1.751 0 0 0 -1.75 1.749v13.488a1.75 1.75 0 0 0 1.75 1.751h10.25v18.261a1.751 1.751 0 0 0 1.75 1.75h9.25a1.751 1.751 0 0 0 1.7-1.327l4.657-18.684h10.105a1.75 1.75 0 1 0 0-3.5h-35.962v-9.988h110.5v9.988h-51.145a1.75 1.75 0 1 0 0 3.5h25.289l4.658 18.684a1.749 1.749 0 0 0 1.7 1.327h9.248a1.75 1.75 0 0 0 1.75-1.75v-18.261h10.25a1.749 1.749 0 0 0 1.75-1.75v-13.489a1.75 1.75 0 0 0 -1.75-1.749zm-27.63-77h13.88v6.7h-13.88zm-10.24 0h6.74v14.421l-2.133-2.132a1.748 1.748 0 0 0 -2.474 0l-2.133 2.132zm-17.38 0h13.88v6.7h-13.88zm-45 93.989h10.25l-4.117 16.51h-6.133zm62.38-53.74h6.74v14.422l-2.133-2.132a1.748 1.748 0 0 0 -2.474 0l-2.133 2.132zm-17.38 0h13.88v6.7h-13.88zm-27.62-40.25h6.74v14.422l-2.133-2.132a1.748 1.748 0 0 0 -2.474 0l-2.133 2.132zm-17.38 0h13.88v6.7h-13.88zm0 40.25h13.88v6.7h-13.88zm41.5 36.751h-41.5v-26.551h13.88v8.448a1.75 1.75 0 0 0 2.987 1.238l3.883-3.886 3.883 3.883a1.75 1.75 0 0 0 2.987-1.238v-8.445h13.88zm-24.12-22.329v-14.422h6.74v14.422l-2.133-2.132a1.748 1.748 0 0 0 -2.474 0zm24.12-7.722h-13.88v-6.7h13.88zm0-10.2h-41.5v-26.552h13.88v8.452a1.749 1.749 0 0 0 2.987 1.237l3.883-3.885 3.883 3.882a1.749 1.749 0 0 0 2.987-1.234v-8.452h13.88zm0-30.052h-13.88v-6.698h13.88zm45 70.3h-41.5v-26.548h13.88v8.448a1.75 1.75 0 0 0 2.987 1.238l3.883-3.886 3.883 3.883a1.75 1.75 0 0 0 2.987-1.238v-8.445h13.88zm0-30.052h-13.88v-6.696h13.88zm0 63.551h-6.133l-4.117-16.508h10.25z"></path></g></g></svg>